<mxfile host="app.diagrams.net" agent="Mozilla/5.0 (Windows NT 10.0; Win64; x64) AppleWebKit/537.36 (KHTML, like Gecko) Chrome/129.0.0.0 Safari/537.36" version="24.7.17">
  <diagram name="Halaman-1" id="EXYncz0EHBTKRrqhBA8b">
    <mxGraphModel grid="1" page="1" gridSize="10" guides="1" tooltips="1" connect="1" arrows="1" fold="1" pageScale="1" pageWidth="827" pageHeight="1169" math="0" shadow="0">
      <root>
        <mxCell id="0" />
        <mxCell id="1" parent="0" />
        <mxCell id="lOG6CTrDFg2ircKx6USl-11" value="" style="edgeStyle=orthogonalEdgeStyle;rounded=0;orthogonalLoop=1;jettySize=auto;html=1;" edge="1" parent="1" source="lOG6CTrDFg2ircKx6USl-1" target="lOG6CTrDFg2ircKx6USl-2">
          <mxGeometry relative="1" as="geometry" />
        </mxCell>
        <mxCell id="lOG6CTrDFg2ircKx6USl-1" value="Start" style="ellipse;whiteSpace=wrap;html=1;" vertex="1" parent="1">
          <mxGeometry x="320" y="40" width="120" height="80" as="geometry" />
        </mxCell>
        <mxCell id="lOG6CTrDFg2ircKx6USl-27" style="edgeStyle=orthogonalEdgeStyle;rounded=0;orthogonalLoop=1;jettySize=auto;html=1;entryX=0.5;entryY=0;entryDx=0;entryDy=0;" edge="1" parent="1" source="lOG6CTrDFg2ircKx6USl-2" target="lOG6CTrDFg2ircKx6USl-3">
          <mxGeometry relative="1" as="geometry" />
        </mxCell>
        <mxCell id="lOG6CTrDFg2ircKx6USl-28" style="edgeStyle=orthogonalEdgeStyle;rounded=0;orthogonalLoop=1;jettySize=auto;html=1;entryX=0.5;entryY=0;entryDx=0;entryDy=0;" edge="1" parent="1" source="lOG6CTrDFg2ircKx6USl-2" target="lOG6CTrDFg2ircKx6USl-4">
          <mxGeometry relative="1" as="geometry" />
        </mxCell>
        <mxCell id="lOG6CTrDFg2ircKx6USl-2" value="Halaman awal (memilih akun)" style="rounded=0;whiteSpace=wrap;html=1;" vertex="1" parent="1">
          <mxGeometry x="320" y="160" width="120" height="60" as="geometry" />
        </mxCell>
        <mxCell id="lOG6CTrDFg2ircKx6USl-65" style="edgeStyle=orthogonalEdgeStyle;rounded=0;orthogonalLoop=1;jettySize=auto;html=1;entryX=0.5;entryY=0;entryDx=0;entryDy=0;" edge="1" parent="1" source="lOG6CTrDFg2ircKx6USl-3" target="lOG6CTrDFg2ircKx6USl-32">
          <mxGeometry relative="1" as="geometry" />
        </mxCell>
        <mxCell id="lOG6CTrDFg2ircKx6USl-3" value="Account company" style="rhombus;whiteSpace=wrap;html=1;" vertex="1" parent="1">
          <mxGeometry x="260" y="280" width="80" height="80" as="geometry" />
        </mxCell>
        <mxCell id="lOG6CTrDFg2ircKx6USl-66" style="edgeStyle=orthogonalEdgeStyle;rounded=0;orthogonalLoop=1;jettySize=auto;html=1;entryX=0.5;entryY=0;entryDx=0;entryDy=0;" edge="1" parent="1" source="lOG6CTrDFg2ircKx6USl-4" target="lOG6CTrDFg2ircKx6USl-33">
          <mxGeometry relative="1" as="geometry" />
        </mxCell>
        <mxCell id="lOG6CTrDFg2ircKx6USl-4" value="Account user" style="rhombus;whiteSpace=wrap;html=1;" vertex="1" parent="1">
          <mxGeometry x="420" y="280" width="80" height="80" as="geometry" />
        </mxCell>
        <mxCell id="lOG6CTrDFg2ircKx6USl-55" style="edgeStyle=orthogonalEdgeStyle;rounded=0;orthogonalLoop=1;jettySize=auto;html=1;" edge="1" parent="1" source="lOG6CTrDFg2ircKx6USl-32" target="lOG6CTrDFg2ircKx6USl-35">
          <mxGeometry relative="1" as="geometry" />
        </mxCell>
        <mxCell id="lOG6CTrDFg2ircKx6USl-67" style="edgeStyle=orthogonalEdgeStyle;rounded=0;orthogonalLoop=1;jettySize=auto;html=1;" edge="1" parent="1" source="lOG6CTrDFg2ircKx6USl-32" target="lOG6CTrDFg2ircKx6USl-34">
          <mxGeometry relative="1" as="geometry" />
        </mxCell>
        <mxCell id="lOG6CTrDFg2ircKx6USl-32" value="Homepage company" style="rounded=0;whiteSpace=wrap;html=1;" vertex="1" parent="1">
          <mxGeometry x="210" y="470" width="120" height="60" as="geometry" />
        </mxCell>
        <mxCell id="lOG6CTrDFg2ircKx6USl-59" style="edgeStyle=orthogonalEdgeStyle;rounded=0;orthogonalLoop=1;jettySize=auto;html=1;entryX=0.5;entryY=0;entryDx=0;entryDy=0;" edge="1" parent="1" source="lOG6CTrDFg2ircKx6USl-33" target="lOG6CTrDFg2ircKx6USl-36">
          <mxGeometry relative="1" as="geometry" />
        </mxCell>
        <mxCell id="lOG6CTrDFg2ircKx6USl-60" style="edgeStyle=orthogonalEdgeStyle;rounded=0;orthogonalLoop=1;jettySize=auto;html=1;entryX=0.5;entryY=0;entryDx=0;entryDy=0;" edge="1" parent="1" source="lOG6CTrDFg2ircKx6USl-33" target="lOG6CTrDFg2ircKx6USl-37">
          <mxGeometry relative="1" as="geometry">
            <mxPoint x="590" y="740" as="targetPoint" />
          </mxGeometry>
        </mxCell>
        <mxCell id="lOG6CTrDFg2ircKx6USl-33" value="Homepage user" style="rounded=0;whiteSpace=wrap;html=1;" vertex="1" parent="1">
          <mxGeometry x="420" y="470" width="120" height="60" as="geometry" />
        </mxCell>
        <mxCell id="lOG6CTrDFg2ircKx6USl-63" style="edgeStyle=orthogonalEdgeStyle;rounded=0;orthogonalLoop=1;jettySize=auto;html=1;entryX=0.5;entryY=0;entryDx=0;entryDy=0;" edge="1" parent="1" source="lOG6CTrDFg2ircKx6USl-34" target="lOG6CTrDFg2ircKx6USl-38">
          <mxGeometry relative="1" as="geometry" />
        </mxCell>
        <mxCell id="lOG6CTrDFg2ircKx6USl-34" value="Alat pertanian" style="rhombus;whiteSpace=wrap;html=1;" vertex="1" parent="1">
          <mxGeometry x="150" y="600" width="80" height="80" as="geometry" />
        </mxCell>
        <mxCell id="lOG6CTrDFg2ircKx6USl-69" style="edgeStyle=orthogonalEdgeStyle;rounded=0;orthogonalLoop=1;jettySize=auto;html=1;entryX=0.5;entryY=0;entryDx=0;entryDy=0;" edge="1" parent="1" source="lOG6CTrDFg2ircKx6USl-35" target="lOG6CTrDFg2ircKx6USl-38">
          <mxGeometry relative="1" as="geometry" />
        </mxCell>
        <mxCell id="lOG6CTrDFg2ircKx6USl-35" value="Pupuk" style="rhombus;whiteSpace=wrap;html=1;" vertex="1" parent="1">
          <mxGeometry x="310" y="600" width="80" height="80" as="geometry" />
        </mxCell>
        <mxCell id="lOG6CTrDFg2ircKx6USl-61" style="edgeStyle=orthogonalEdgeStyle;rounded=0;orthogonalLoop=1;jettySize=auto;html=1;entryX=0.5;entryY=0;entryDx=0;entryDy=0;" edge="1" parent="1" source="lOG6CTrDFg2ircKx6USl-36" target="lOG6CTrDFg2ircKx6USl-39">
          <mxGeometry relative="1" as="geometry" />
        </mxCell>
        <mxCell id="lOG6CTrDFg2ircKx6USl-36" value="Alat pertanian" style="rhombus;whiteSpace=wrap;html=1;" vertex="1" parent="1">
          <mxGeometry x="410" y="600" width="80" height="80" as="geometry" />
        </mxCell>
        <mxCell id="lOG6CTrDFg2ircKx6USl-62" style="edgeStyle=orthogonalEdgeStyle;rounded=0;orthogonalLoop=1;jettySize=auto;html=1;entryX=0.5;entryY=0;entryDx=0;entryDy=0;" edge="1" parent="1" source="lOG6CTrDFg2ircKx6USl-37" target="lOG6CTrDFg2ircKx6USl-39">
          <mxGeometry relative="1" as="geometry" />
        </mxCell>
        <mxCell id="lOG6CTrDFg2ircKx6USl-37" value="Pupuk" style="rhombus;whiteSpace=wrap;html=1;" vertex="1" parent="1">
          <mxGeometry x="540" y="600" width="80" height="80" as="geometry" />
        </mxCell>
        <mxCell id="lOG6CTrDFg2ircKx6USl-53" style="edgeStyle=orthogonalEdgeStyle;rounded=0;orthogonalLoop=1;jettySize=auto;html=1;entryX=0.5;entryY=0;entryDx=0;entryDy=0;" edge="1" parent="1" source="lOG6CTrDFg2ircKx6USl-38" target="lOG6CTrDFg2ircKx6USl-41">
          <mxGeometry relative="1" as="geometry" />
        </mxCell>
        <mxCell id="lOG6CTrDFg2ircKx6USl-38" value="Inventory company" style="rounded=0;whiteSpace=wrap;html=1;" vertex="1" parent="1">
          <mxGeometry x="210" y="790" width="120" height="60" as="geometry" />
        </mxCell>
        <mxCell id="lOG6CTrDFg2ircKx6USl-52" style="edgeStyle=orthogonalEdgeStyle;rounded=0;orthogonalLoop=1;jettySize=auto;html=1;entryX=0.5;entryY=0;entryDx=0;entryDy=0;" edge="1" parent="1" source="lOG6CTrDFg2ircKx6USl-39" target="lOG6CTrDFg2ircKx6USl-42">
          <mxGeometry relative="1" as="geometry" />
        </mxCell>
        <mxCell id="lOG6CTrDFg2ircKx6USl-39" value="Inventory User" style="rounded=0;whiteSpace=wrap;html=1;" vertex="1" parent="1">
          <mxGeometry x="460" y="790" width="120" height="60" as="geometry" />
        </mxCell>
        <mxCell id="lOG6CTrDFg2ircKx6USl-73" style="edgeStyle=orthogonalEdgeStyle;rounded=0;orthogonalLoop=1;jettySize=auto;html=1;entryX=0.5;entryY=0;entryDx=0;entryDy=0;" edge="1" parent="1" source="lOG6CTrDFg2ircKx6USl-41" target="lOG6CTrDFg2ircKx6USl-43">
          <mxGeometry relative="1" as="geometry" />
        </mxCell>
        <mxCell id="lOG6CTrDFg2ircKx6USl-41" value="Transaksi Company" style="rounded=0;whiteSpace=wrap;html=1;" vertex="1" parent="1">
          <mxGeometry x="210" y="930" width="120" height="60" as="geometry" />
        </mxCell>
        <mxCell id="lOG6CTrDFg2ircKx6USl-76" style="edgeStyle=orthogonalEdgeStyle;rounded=0;orthogonalLoop=1;jettySize=auto;html=1;" edge="1" parent="1" source="lOG6CTrDFg2ircKx6USl-42">
          <mxGeometry relative="1" as="geometry">
            <mxPoint x="400" y="1070" as="targetPoint" />
          </mxGeometry>
        </mxCell>
        <mxCell id="lOG6CTrDFg2ircKx6USl-42" value="Transaksi user" style="rounded=0;whiteSpace=wrap;html=1;" vertex="1" parent="1">
          <mxGeometry x="460" y="930" width="120" height="60" as="geometry" />
        </mxCell>
        <mxCell id="lOG6CTrDFg2ircKx6USl-43" value="Finish" style="ellipse;whiteSpace=wrap;html=1;" vertex="1" parent="1">
          <mxGeometry x="340" y="1070" width="120" height="80" as="geometry" />
        </mxCell>
      </root>
    </mxGraphModel>
  </diagram>
</mxfile>
